<svg id="Lager_1" data-name="Lager 1" xmlns="http://www.w3.org/2000/svg" viewBox="0 0 67.48 29.16"><defs><style>.cls-1{fill:#fff;}</style></defs><path d="M52.83,463.63l1.33.06c-.83,1.37,1.1,6.26,5.08,5.59-.52,2.66,1.75,4.31,4.33,3.64,2.22-.56,3.52-.78,7.41-.07,4.82.89,10.37,2.38,16.07-1a.91.91,0,0,1,1.23.33c.27.62.07,2.48,1.62,2.51h5.82c2.07,0,3.73-3,3.7-12.67,0-10-.14-14-4.29-14s-5.21,0-5.21,0c-1.29,0-1.5.9-1.7,1.47a.73.73,0,0,1-.94.31,40.32,40.32,0,0,0-10.12-2.93c-4.12-.43-5.74-1.68-8.51-1.25-3.29.5-13.93.15-17.12.11s-8.11,1-14.74.81c-6.33-.14-6.36,7.19-.67,6.85,4.51-.26,4.66.29,6.21.1a41,41,0,0,1,7.85.13,35.75,35.75,0,0,1,4.87.07c-1.56.37-1.62.81-3.85,1.82C47.94,457.19,49.83,463.44,52.83,463.63Z" transform="translate(-31.94 -445.58)"/><path class="cls-1" d="M91.13,461a72.93,72.93,0,0,1-.89,11.56c-.21.59.22,1,1.11.88.62-.05,3.74,0,3.74,0,1.37,0,3-1.41,3-12.08-.08-11-.52-12.45-3.78-12.45l-4,.12a.74.74,0,0,0-.55.44C89.44,450.1,90.85,450.94,91.13,461Z" transform="translate(-31.94 -445.58)"/><path class="cls-1" d="M81.7,462.12a.6.6,0,0,1,.16.62c-.37.7-1.18.17-1.81.11s-3.33-.52-4.37.16a7.78,7.78,0,0,0-3.78,4.77,4.14,4.14,0,0,1-2.33,2.52c-.95.3-.79,1.27,0,1.35,2.17.2,2.83,1.11,9.57,1.09,5.37-.29,10.41-1.33,10.74-8.48.11-3.93-.05-9.42-.62-11.41s-2.23-2-3.67-2.74c-6-2.57-10-2.41-13.3-3.15-1.3-.29-2.3-.79-4,.37-3.55,2.49-7.82,3.34-8.86,4.08-.71.46-.92.7-1,1-.18.43-.93.48-1.56,1a4,4,0,0,1-1,.63c.6.78,1.13-.09,2,1.59a2.12,2.12,0,0,1-.14,1.33c-.39.69-1.85.8-2.42.9l-1.52.27c-1.38.26-1.79-1.14-1.84-.64-.25,2.51,3.13,2,4.24,1.81a19.65,19.65,0,0,0,3.14-.93c.48-.37,3-.44,3-2.24,0-.29,0-.93.78-.64.6.22,3.48.19,3.91-.63a1.56,1.56,0,0,1,.8-.82c.4-.18.64.05.59.52s0,1.4.81,1.59a1.76,1.76,0,0,0,1.63-.11,6.38,6.38,0,0,1,2.07-.92c.4.12.7.42-.22.84a2,2,0,0,0-.4,3.26c2.06,2.26,1.4,2.43,8.73,2.67A.92.92,0,0,1,81.7,462.12Z" transform="translate(-31.94 -445.58)"/><path class="cls-1" d="M69.7,462.25c1-1.23,1.7-1.64.79-2.84-.11-.23-.44-.23-1.35,0-.48.11-2.09,2.05-.68,3.35C68.79,462.92,69.16,463.06,69.7,462.25Z" transform="translate(-31.94 -445.58)"/><path class="cls-1" d="M71.24,466.07c.58.19,1.52-2.52,1.48-2.7s-.11-.54-1.3-.63A2.1,2.1,0,0,0,70,464.92C70.09,465.71,71.12,466,71.24,466.07Z" transform="translate(-31.94 -445.58)"/><path class="cls-1" d="M66.4,459.24c.52-.57,1.68-1.63,1.36-2.2s-.85-1-2.06-.59c-.81.28-2.32,1.59-.69,3.18C65.51,459.83,65.7,460,66.4,459.24Z" transform="translate(-31.94 -445.58)"/><path class="cls-1" d="M60.29,469.24c-.84,3.5,3,3.24,4.57,2.32,2.5-1.49,4.67-1.85,5.52-2.85.48-.57,1.19-2,.48-2.07a3,3,0,0,1-1.51-.9c-.14-.13.05-1.09-.15-1.07s.11,1-2.3,2.22a30.88,30.88,0,0,1-4.07,1.55,17.47,17.47,0,0,1-2.3.58C60.33,469.06,60.31,469.16,60.29,469.24Z" transform="translate(-31.94 -445.58)"/><path class="cls-1" d="M55.62,463.7a29.72,29.72,0,0,1,4.36,0c3.26.33,4.7-.92,5.4-1.84.67-.62.86-1.14,1.38-1.57s.87-1.05.59.06c-.14.55-.58.89-.22,1.8a3,3,0,0,0,1.4,1.48c.12,0,.25.05.15.11a4.75,4.75,0,0,1-3.33,2.67c-3.63.94-5.23,1.83-6,2a2.17,2.17,0,0,1-.51,0,2.89,2.89,0,0,1-1.87-.53c-.35-.28-2.21-1.85-1.73-3.8C55.35,463.87,55.46,463.7,55.62,463.7Z" transform="translate(-31.94 -445.58)"/><path class="cls-1" d="M50.72,457.59c-.26,0-.7,3.93,2,4.93,1.34.49,2.07.14,3.4.19,2.3-.12,4.14.05,5.08,0a4.22,4.22,0,0,0,3.18-1.11c.37-.4,1.21-1,.65-1.26a2,2,0,0,1-1.39-1.22c-.63-1.19.2-2-.54-1.67a5.17,5.17,0,0,0-1.35.78c-2.6,1.84-10.85,3.81-10.66-.34C51.09,457.63,50.83,457.41,50.72,457.59Z" transform="translate(-31.94 -445.58)"/><path class="cls-1" d="M54.9,454.74a2.37,2.37,0,0,0-1.14.41c-.52.22-2.38.56-1.52,1.63s3.37.14,4.25-.14a.76.76,0,0,0,.52-.75C57,455.56,56.79,454.74,54.9,454.74Z" transform="translate(-31.94 -445.58)"/><path class="cls-1" d="M41.05,447.56c2,0,6.74-1,9.22-.55,3-.57,8.3,0,10-.12a50.75,50.75,0,0,1,7.11,0,26.42,26.42,0,0,1-6.78,3,5.43,5.43,0,0,0-3.37,2.31c-2.61.42-6.41.6-6.59.23-.08-.17-.13-.38-.61-.27s-.21.2-1,.23c-4.11.12-6.29,0-6.29,0-.92,0-.61-.39-.93-.48s-.08.23-1,.34a37.93,37.93,0,0,1-5.46.18c-3.23.07-4-4.8,1.48-5A41.15,41.15,0,0,1,41.05,447.56Z" transform="translate(-31.94 -445.58)"/></svg>