<svg id="Lager_1" data-name="Lager 1" xmlns="http://www.w3.org/2000/svg" viewBox="0 0 249.6 59.92"><defs><style>.cls-1{fill:none;stroke:#000;stroke-miterlimit:10;stroke-width:2px;}</style></defs><path class="cls-1" d="M76.55,454.09H102a35.76,35.76,0,0,1,16.12,3.48,26.08,26.08,0,0,1,10.88,9.8,29.86,29.86,0,0,1,0,29.44,26.08,26.08,0,0,1-10.88,9.8A35.76,35.76,0,0,1,102,510.09H76.55Zm24.8,45.36q8.4,0,13.4-4.68t5-12.68q0-8-5-12.68t-13.4-4.68H89.51v34.72Z" transform="translate(-75.55 -452.13)"/><path class="cls-1" d="M156,507.29a27.91,27.91,0,0,1-11-10.36,29.79,29.79,0,0,1,0-29.68,27.91,27.91,0,0,1,11-10.36,34.66,34.66,0,0,1,31.4,0,28.56,28.56,0,0,1,0,50.4,34.66,34.66,0,0,1-31.4,0Zm24.68-9.56a16.34,16.34,0,0,0,6.28-6.36,20,20,0,0,0,0-18.56,16.34,16.34,0,0,0-6.28-6.36,18.75,18.75,0,0,0-17.92,0,16.34,16.34,0,0,0-6.28,6.36,20,20,0,0,0,0,18.56,16.34,16.34,0,0,0,6.28,6.36,18.75,18.75,0,0,0,17.92,0Z" transform="translate(-75.55 -452.13)"/><path class="cls-1" d="M265.51,454.09v56H254.87l-27.92-34v34h-12.8v-56h10.72l27.84,34v-34Z" transform="translate(-75.55 -452.13)"/><path class="cls-1" d="M324.15,499.69v10.4H280.79v-56h42.32v10.4H293.67v12.16h26v10.08h-26v13Z" transform="translate(-75.55 -452.13)"/></svg>