<svg id="Lager_1" data-name="Lager 1" xmlns="http://www.w3.org/2000/svg" viewBox="0 0 271.68 59.92"><defs><style>.cls-1{fill:none;stroke:#000;stroke-miterlimit:10;stroke-width:2px;}</style></defs><path class="cls-1" d="M106.79,481.21h11.84v22.72a34,34,0,0,1-10.56,5.28A40.86,40.86,0,0,1,96,511.05a32.75,32.75,0,0,1-15.68-3.72A27.69,27.69,0,0,1,69.39,497a30.09,30.09,0,0,1,0-29.84,27.58,27.58,0,0,1,11-10.32,33.42,33.42,0,0,1,15.84-3.72,34.71,34.71,0,0,1,13.36,2.48,26.4,26.4,0,0,1,10.08,7.2l-8.32,7.68a19.24,19.24,0,0,0-14.48-6.32,19.83,19.83,0,0,0-9.52,2.24,16.09,16.09,0,0,0-6.48,6.32,19.88,19.88,0,0,0,0,18.64,16.48,16.48,0,0,0,6.44,6.36,19.1,19.1,0,0,0,9.4,2.28,21,21,0,0,0,10.08-2.4Z" transform="translate(-64.43 -452.13)"/><path class="cls-1" d="M176,499.69v10.4H132.63v-56H175v10.4H145.51v12.16h26v10.08h-26v13Z" transform="translate(-64.43 -452.13)"/><path class="cls-1" d="M199.91,464.65H182V454.09h48.8v10.56H212.87v45.44h-13Z" transform="translate(-64.43 -452.13)"/><path class="cls-1" d="M264.39,454.09h13v56h-13Z" transform="translate(-64.43 -452.13)"/><path class="cls-1" d="M304.23,464.65H286.31V454.09h48.8v10.56H317.19v45.44h-13Z" transform="translate(-64.43 -452.13)"/></svg>