<svg id="Lager_1" data-name="Lager 1" xmlns="http://www.w3.org/2000/svg" viewBox="0 0 586.95 59.92"><defs><style>.cls-1{fill:none;stroke:#000;stroke-miterlimit:10;stroke-width:2px;}</style></defs><path class="cls-1" d="M-91.4,454.09h13v56h-13Z" transform="translate(92.4 -452.13)"/><path class="cls-1" d="M-11.8,454.09v56H-22.44l-27.92-34v34h-12.8v-56h10.72l27.84,34v-34Z" transform="translate(92.4 -452.13)"/><path class="cls-1" d="M65.27,456.57a19.2,19.2,0,0,1,8.45,7,21.11,21.11,0,0,1,0,21.56,18.88,18.88,0,0,1-8.45,7,31.49,31.49,0,0,1-12.92,2.44H41.07v15.44h-13v-56H52.35A31.15,31.15,0,0,1,65.27,456.57Zm-4.75,25a10,10,0,0,0,0-14.4q-3-2.52-8.88-2.52H41.07v19.44H51.64Q57.48,484.09,60.52,481.57Z" transform="translate(92.4 -452.13)"/><path class="cls-1" d="M123.56,510.09l-10.81-15.6H100.83v15.6h-13v-56h24.24A31.15,31.15,0,0,1,125,456.57a19.2,19.2,0,0,1,8.45,7,19.42,19.42,0,0,1,3,10.8,18.23,18.23,0,0,1-11.53,17.68l12.57,18Zm-3.29-42.92q-3-2.52-8.87-2.52H100.83v19.52H111.4q5.84,0,8.87-2.56a10.09,10.09,0,0,0,0-14.44Z" transform="translate(92.4 -452.13)"/><path class="cls-1" d="M160.07,507.29a28,28,0,0,1-11-10.36,29.79,29.79,0,0,1,0-29.68,28,28,0,0,1,11-10.36,34.66,34.66,0,0,1,31.4,0,28.56,28.56,0,0,1,0,50.4,34.66,34.66,0,0,1-31.4,0Zm24.68-9.56a16.34,16.34,0,0,0,6.28-6.36,20,20,0,0,0,0-18.56,16.34,16.34,0,0,0-6.28-6.36,18.75,18.75,0,0,0-17.92,0,16.41,16.41,0,0,0-6.28,6.36,20,20,0,0,0,0,18.56,16.41,16.41,0,0,0,6.28,6.36,18.75,18.75,0,0,0,17.92,0Z" transform="translate(92.4 -452.13)"/><path class="cls-1" d="M256,481.21h11.84v22.72a34,34,0,0,1-10.56,5.28,40.86,40.86,0,0,1-12.08,1.84,32.75,32.75,0,0,1-15.68-3.72A27.69,27.69,0,0,1,218.63,497a30.09,30.09,0,0,1,0-29.84,27.58,27.58,0,0,1,11-10.32,33.42,33.42,0,0,1,15.84-3.72,34.71,34.71,0,0,1,13.36,2.48,26.4,26.4,0,0,1,10.08,7.2l-8.32,7.68a19.24,19.24,0,0,0-14.48-6.32,19.83,19.83,0,0,0-9.52,2.24,16.09,16.09,0,0,0-6.48,6.32,19.88,19.88,0,0,0,0,18.64,16.48,16.48,0,0,0,6.44,6.36A19.1,19.1,0,0,0,246,500a21,21,0,0,0,10.08-2.4Z" transform="translate(92.4 -452.13)"/><path class="cls-1" d="M317.55,510.09l-10.8-15.6H294.83v15.6h-13v-56h24.24A31.15,31.15,0,0,1,319,456.57a19.12,19.12,0,0,1,8.44,7,19.34,19.34,0,0,1,3,10.8,18.24,18.24,0,0,1-11.52,17.68l12.56,18Zm-3.28-42.92q-3-2.52-8.88-2.52H294.83v19.52h10.56q5.85,0,8.88-2.56a10.09,10.09,0,0,0,0-14.44Z" transform="translate(92.4 -452.13)"/><path class="cls-1" d="M386,499.69v10.4H342.67v-56H385v10.4H355.55v12.16h26v10.08h-26v13Z" transform="translate(92.4 -452.13)"/><path class="cls-1" d="M403.91,509.25a30.18,30.18,0,0,1-10-4.68l4.4-9.76a29.9,29.9,0,0,0,8.56,4.24,32.05,32.05,0,0,0,9.92,1.6q5.52,0,8.16-1.64a5,5,0,0,0,2.64-4.36,4.17,4.17,0,0,0-1.56-3.32,11.74,11.74,0,0,0-4-2.12q-2.44-.79-6.6-1.76a91,91,0,0,1-10.48-3,17,17,0,0,1-7-4.88,13.17,13.17,0,0,1-2.92-9,15.59,15.59,0,0,1,2.64-8.84,17.76,17.76,0,0,1,8-6.28,32.43,32.43,0,0,1,13-2.32,43.21,43.21,0,0,1,10.48,1.28,30.91,30.91,0,0,1,9,3.68l-4,9.84a31.26,31.26,0,0,0-15.52-4.4q-5.44,0-8,1.76a5.38,5.38,0,0,0-2.6,4.64,4.53,4.53,0,0,0,3,4.28,47.5,47.5,0,0,0,9.16,2.76,91,91,0,0,1,10.48,3,17.31,17.31,0,0,1,7,4.8q2.93,3.29,2.92,8.88a15.27,15.27,0,0,1-2.68,8.76,18.07,18.07,0,0,1-8,6.28,32.71,32.71,0,0,1-13,2.32A45.78,45.78,0,0,1,403.91,509.25Z" transform="translate(92.4 -452.13)"/><path class="cls-1" d="M457,509.25a30.18,30.18,0,0,1-10-4.68l4.4-9.76a29.9,29.9,0,0,0,8.56,4.24,32.05,32.05,0,0,0,9.92,1.6q5.52,0,8.16-1.64a5,5,0,0,0,2.64-4.36,4.17,4.17,0,0,0-1.56-3.32,11.74,11.74,0,0,0-4-2.12q-2.44-.79-6.6-1.76a91,91,0,0,1-10.48-3,17,17,0,0,1-7-4.88,13.17,13.17,0,0,1-2.92-9,15.59,15.59,0,0,1,2.64-8.84,17.76,17.76,0,0,1,8-6.28,32.43,32.43,0,0,1,13-2.32,43.21,43.21,0,0,1,10.48,1.28,30.91,30.91,0,0,1,9,3.68l-4,9.84a31.26,31.26,0,0,0-15.52-4.4q-5.44,0-8,1.76a5.38,5.38,0,0,0-2.6,4.64,4.53,4.53,0,0,0,3,4.28,47.5,47.5,0,0,0,9.16,2.76,91,91,0,0,1,10.48,3,17.31,17.31,0,0,1,7,4.8q2.92,3.29,2.92,8.88a15.27,15.27,0,0,1-2.68,8.76,18.07,18.07,0,0,1-8,6.28,32.71,32.71,0,0,1-13,2.32A45.78,45.78,0,0,1,457,509.25Z" transform="translate(92.4 -452.13)"/></svg>